# xmcd CD database file
#
# Track frame offsets:
#	150
#	19280
#	42010
#	63157
#	82572
#	98780
#	118632
#	136552
#	156042
#	177660
#
# Disc length: 2584 seconds
#
# Revision: 0
# Processed by: cddbd v1.5PL3 Copyright (c) Steve Scherf et al.
# Submitted via: CDex 1.51
#
DISCID=6e0a160a
DTITLE=BoA - Shine We Are
DYEAR=2003
DGENRE=Pop
TTITLE0=B.I.O
TTITLE1=Shine We Are!
TTITLE2=One Way
TTITLE3=Discovery
TTITLE4=Milky Way (Club Remix)
TTITLE5=Flower
TTITLE6=Searching For Truth
TTITLE7=Beside You
TTITLE8=Always
TTITLE9=Flying Without Wings -Westlife Featurling BoA
EXTD=YEAR: 2003
EXTT0=
EXTT1=
EXTT2=
EXTT3=
EXTT4=
EXTT5=
EXTT6=
EXTT7=
EXTT8=
EXTT9=
PLAYORDER=
